<svg width="22" height="16" viewBox="0 0 22 16" fill="none" xmlns="http://www.w3.org/2000/svg">
<path fill-rule="evenodd" clip-rule="evenodd" d="M0.432283 7.57749C0.432283 7.29044 0.546311 7.01515 0.749283 6.81218C0.952254 6.60921 1.22754 6.49518 1.51459 6.49518L17.7355 6.49518L13.088 1.84994C12.8848 1.64671 12.7706 1.37108 12.7706 1.08367C12.7706 0.796263 12.8848 0.520627 13.088 0.3174C13.2913 0.114172 13.5669 0 13.8543 0C14.1417 0 14.4174 0.114172 14.6206 0.3174L21.1144 6.81121C21.2152 6.91175 21.2952 7.03118 21.3497 7.16267C21.4043 7.29416 21.4324 7.43512 21.4324 7.57749C21.4324 7.71985 21.4043 7.86081 21.3497 7.9923C21.2952 8.12379 21.2152 8.24322 21.1144 8.34376L14.6206 14.8376C14.4174 15.0408 14.1417 15.155 13.8543 15.155C13.5669 15.155 13.2913 15.0408 13.088 14.8376C12.8848 14.6343 12.7706 14.3587 12.7706 14.0713C12.7706 13.7839 12.8848 13.5083 13.088 13.305L17.7355 8.65979L1.51459 8.65979C1.22754 8.65979 0.952254 8.54576 0.749283 8.34279C0.546311 8.13982 0.432283 7.86453 0.432283 7.57749Z" fill="#090B18"/>
</svg>
