<svg width="68" height="30" viewBox="0 0 68 30" fill="none" xmlns="http://www.w3.org/2000/svg">
<path fill-rule="evenodd" clip-rule="evenodd" d="M15 0C6.71573 0 0 6.71573 0 15C0 23.2843 6.71573 30 15 30C17.4317 30 19.7283 29.4214 21.7596 28.3942C23.4603 27.5342 25.5397 27.5342 27.2404 28.3942C29.2717 29.4214 31.5683 30 34 30C36.4317 30 38.7283 29.4214 40.7596 28.3942C42.4603 27.5342 44.5397 27.5342 46.2404 28.3942C48.2717 29.4214 50.5683 30 53 30C61.2843 30 68 23.2843 68 15C68 6.71573 61.2843 0 53 0C50.5683 0 48.2717 0.57865 46.2404 1.60577C44.5397 2.46578 42.4603 2.46578 40.7596 1.60577C38.7283 0.57865 36.4317 0 34 0C31.5683 0 29.2717 0.578649 27.2404 1.60577C25.5397 2.46578 23.4603 2.46578 21.7596 1.60577C19.7283 0.578649 17.4317 0 15 0Z" fill="#090B18"/>
<path d="M12.4922 19C12.4922 19 12.4922 18.5312 12.4922 17.5938C12.4922 17.5938 13.5449 16.5977 15.6504 14.6055C16.0137 14.2656 16.2734 13.957 16.4297 13.6797C16.5898 13.4023 16.6699 13.1191 16.6699 12.8301C16.6699 12.4355 16.5469 12.1055 16.3008 11.8398C16.0586 11.5742 15.7539 11.4414 15.3867 11.4414C14.9727 11.4414 14.6387 11.6016 14.3848 11.9219C14.1309 12.2422 14.0039 12.666 14.0039 13.1934H12.4336C12.4336 12.752 12.4727 12.3809 12.5508 12.0801C12.6289 11.7754 12.7578 11.4863 12.9375 11.2129C13.1953 10.8262 13.5391 10.5234 13.9688 10.3047C14.3984 10.0859 14.8652 9.97656 15.3691 9.97656C16.1973 9.97656 16.8867 10.25 17.4375 10.7969C17.9883 11.3438 18.2637 12.0293 18.2637 12.8535C18.2637 13.3965 18.1387 13.8848 17.8887 14.3184C17.6426 14.752 17.1953 15.2637 16.5469 15.8535L14.7363 17.5H18.2285V19H12.4922ZM21.5684 19C21.5684 19 21.5684 16.5449 21.5684 11.6348C21.5684 11.6348 21.1973 11.6348 20.4551 11.6348C20.4551 11.6348 20.4551 11.1348 20.4551 10.1348C20.4551 10.1348 21.3594 10.1348 23.168 10.1348C23.168 10.1348 23.168 13.0898 23.168 19C23.168 19 22.6348 19 21.5684 19ZM26.3203 19C26.3203 19 26.3203 18.4883 26.3203 17.4648C26.3203 17.4648 26.8516 17.4648 27.9141 17.4648C27.9141 17.4648 27.9141 17.9766 27.9141 19C27.9141 19 27.3828 19 26.3203 19ZM35.127 12.9414C35.127 12.9414 35.127 13.9727 35.127 16.0352C35.127 17.0195 34.873 17.7871 34.3652 18.3379C33.8574 18.8848 33.1484 19.1582 32.2383 19.1582C31.1484 19.1582 30.3203 18.7812 29.7539 18.0273C29.3789 17.5195 29.1914 16.8555 29.1914 16.0352V13.0234C29.1914 12.0898 29.459 11.3496 29.9941 10.8027C30.5293 10.252 31.252 9.97656 32.1621 9.97656C33.0605 9.97656 33.7793 10.2461 34.3184 10.7852C34.8574 11.3242 35.127 12.043 35.127 12.9414ZM30.7852 13.0234V15.9883C30.7852 16.5391 30.9043 16.9609 31.1426 17.2539C31.3848 17.5469 31.7344 17.6934 32.1914 17.6934C33.0859 17.6934 33.5332 17.1367 33.5332 16.0234V13.0234C33.5332 12.5156 33.4141 12.125 33.1758 11.8516C32.9414 11.5781 32.6074 11.4414 32.1738 11.4414C31.7441 11.4414 31.4043 11.582 31.1543 11.8633C30.9082 12.1445 30.7852 12.5312 30.7852 13.0234ZM36.1816 14.7637C36.1816 14.7637 36.457 13.2207 37.0078 10.1348C37.0078 10.1348 38.3438 10.1348 41.0156 10.1348C41.0156 10.1348 41.0156 10.6348 41.0156 11.6348C41.0156 11.6348 40.0801 11.6348 38.209 11.6348C38.209 11.6348 38.1133 12.1777 37.9219 13.2637C38.1484 13.166 38.3418 13.0996 38.502 13.0645C38.666 13.0293 38.8516 13.0117 39.0586 13.0117C39.8672 13.0117 40.5371 13.2988 41.0684 13.873C41.5996 14.4434 41.8652 15.1641 41.8652 16.0352C41.8652 16.9297 41.5781 17.6738 41.0039 18.2676C40.4336 18.8613 39.7168 19.1582 38.8535 19.1582C38.3066 19.1582 37.8027 19.0352 37.3418 18.7891C36.8809 18.543 36.5098 18.2051 36.2285 17.7754C35.9512 17.3457 35.7988 16.8691 35.7715 16.3457H37.3652C37.4512 16.7793 37.6172 17.1133 37.8633 17.3477C38.1094 17.5781 38.4238 17.6934 38.8066 17.6934C39.2363 17.6934 39.5879 17.541 39.8613 17.2363C40.1348 16.9316 40.2715 16.5391 40.2715 16.0586C40.2715 15.6055 40.1348 15.2285 39.8613 14.9277C39.5879 14.627 39.2441 14.4766 38.8301 14.4766C38.5762 14.4766 38.3555 14.5273 38.168 14.6289C37.9844 14.7305 37.793 14.9043 37.5938 15.1504L36.1816 14.7637ZM43.125 19C43.125 19 43.125 18.4883 43.125 17.4648C43.125 17.4648 43.6562 17.4648 44.7188 17.4648C44.7188 17.4648 44.7188 17.9766 44.7188 19C44.7188 19 44.1875 19 43.125 19ZM46.1016 19C46.1016 19 46.1016 18.5312 46.1016 17.5938C46.1016 17.5938 47.1543 16.5977 49.2598 14.6055C49.623 14.2656 49.8828 13.957 50.0391 13.6797C50.1992 13.4023 50.2793 13.1191 50.2793 12.8301C50.2793 12.4355 50.1562 12.1055 49.9102 11.8398C49.668 11.5742 49.3633 11.4414 48.9961 11.4414C48.582 11.4414 48.248 11.6016 47.9941 11.9219C47.7402 12.2422 47.6133 12.666 47.6133 13.1934H46.043C46.043 12.752 46.082 12.3809 46.1602 12.0801C46.2383 11.7754 46.3672 11.4863 46.5469 11.2129C46.8047 10.8262 47.1484 10.5234 47.5781 10.3047C48.0078 10.0859 48.4746 9.97656 48.9785 9.97656C49.8066 9.97656 50.4961 10.25 51.0469 10.7969C51.5977 11.3438 51.873 12.0293 51.873 12.8535C51.873 13.3965 51.748 13.8848 51.498 14.3184C51.252 14.752 50.8047 15.2637 50.1562 15.8535L48.3457 17.5H51.8379V19H46.1016ZM52.4414 16.3691C52.4414 16.3691 53.8027 14.291 56.5254 10.1348C56.5254 10.1348 56.9727 10.1348 57.8672 10.1348C57.8672 10.1348 57.8672 12.1699 57.8672 16.2402C57.8672 16.2402 58.1797 16.2402 58.8047 16.2402C58.8047 16.2402 58.8047 16.7168 58.8047 17.6699C58.8047 17.6699 58.4922 17.6699 57.8672 17.6699C57.8672 17.6699 57.8672 18.1133 57.8672 19C57.8672 19 57.3359 19 56.2734 19C56.2734 19 56.2734 18.5566 56.2734 17.6699C56.2734 17.6699 54.9961 17.6699 52.4414 17.6699C52.4414 17.6699 52.4414 17.2363 52.4414 16.3691ZM56.2734 16.2402C56.2734 16.2402 56.2734 15.0996 56.2734 12.8184C56.2734 12.8184 55.5371 13.959 54.0645 16.2402C54.0645 16.2402 54.8008 16.2402 56.2734 16.2402Z" fill="white"/>
</svg>
