<svg width="22" height="16" viewBox="0 0 22 16" fill="none" xmlns="http://www.w3.org/2000/svg">
<path fill-rule="evenodd" clip-rule="evenodd" d="M21.5677 7.57749C21.5677 7.29044 21.4537 7.01515 21.2507 6.81218C21.0477 6.60921 20.7725 6.49518 20.4854 6.49518L4.26454 6.49518L8.91195 1.84994C9.11518 1.64671 9.22935 1.37108 9.22935 1.08367C9.22935 0.796263 9.11518 0.520627 8.91195 0.3174C8.70872 0.114172 8.43309 0 8.14568 0C7.85827 0 7.58264 0.114172 7.37941 0.3174L0.885593 6.81121C0.784803 6.91175 0.704836 7.03118 0.650274 7.16267C0.595713 7.29416 0.567627 7.43512 0.567627 7.57749C0.567627 7.71985 0.595713 7.86081 0.650274 7.9923C0.704836 8.12379 0.784803 8.24322 0.885593 8.34376L7.37941 14.8376C7.58264 15.0408 7.85827 15.155 8.14568 15.155C8.43309 15.155 8.70872 15.0408 8.91195 14.8376C9.11518 14.6343 9.22935 14.3587 9.22935 14.0713C9.22935 13.7839 9.11518 13.5083 8.91195 13.305L4.26454 8.65979L20.4854 8.65979C20.7725 8.65979 21.0477 8.54576 21.2507 8.34279C21.4537 8.13982 21.5677 7.86453 21.5677 7.57749Z" fill="#919191"/>
</svg>
