<svg width="43" height="30" viewBox="0 0 43 30" fill="none" xmlns="http://www.w3.org/2000/svg">
<rect width="43" height="30" rx="15" fill="#4789EB"/>
<path d="M7.35742 16.252C7.35742 16.252 7.35742 15.7793 7.35742 14.834C7.35742 14.834 8.4668 14.834 10.6855 14.834C10.6855 14.834 10.6855 15.3066 10.6855 16.252C10.6855 16.252 9.57617 16.252 7.35742 16.252ZM11.1602 16.3691C11.1602 16.3691 12.5215 14.291 15.2441 10.1348C15.2441 10.1348 15.6914 10.1348 16.5859 10.1348C16.5859 10.1348 16.5859 12.1699 16.5859 16.2402C16.5859 16.2402 16.8984 16.2402 17.5234 16.2402C17.5234 16.2402 17.5234 16.7168 17.5234 17.6699C17.5234 17.6699 17.2109 17.6699 16.5859 17.6699C16.5859 17.6699 16.5859 18.1133 16.5859 19C16.5859 19 16.0547 19 14.9922 19C14.9922 19 14.9922 18.5566 14.9922 17.6699C14.9922 17.6699 13.7148 17.6699 11.1602 17.6699C11.1602 17.6699 11.1602 17.2363 11.1602 16.3691ZM14.9922 16.2402C14.9922 16.2402 14.9922 15.0996 14.9922 12.8184C14.9922 12.8184 14.2559 13.959 12.7832 16.2402C12.7832 16.2402 13.5195 16.2402 14.9922 16.2402ZM24.0801 12.9414C24.0801 12.9414 24.0801 13.9727 24.0801 16.0352C24.0801 17.0195 23.8262 17.7871 23.3184 18.3379C22.8105 18.8848 22.1016 19.1582 21.1914 19.1582C20.1016 19.1582 19.2734 18.7812 18.707 18.0273C18.332 17.5195 18.1445 16.8555 18.1445 16.0352V13.0234C18.1445 12.0898 18.4121 11.3496 18.9473 10.8027C19.4824 10.252 20.2051 9.97656 21.1152 9.97656C22.0137 9.97656 22.7324 10.2461 23.2715 10.7852C23.8105 11.3242 24.0801 12.043 24.0801 12.9414ZM19.7383 13.0234V15.9883C19.7383 16.5391 19.8574 16.9609 20.0957 17.2539C20.3379 17.5469 20.6875 17.6934 21.1445 17.6934C22.0391 17.6934 22.4863 17.1367 22.4863 16.0234V13.0234C22.4863 12.5156 22.3672 12.125 22.1289 11.8516C21.8945 11.5781 21.5605 11.4414 21.127 11.4414C20.6973 11.4414 20.3574 11.582 20.1074 11.8633C19.8613 12.1445 19.7383 12.5312 19.7383 13.0234ZM30.8301 10.1348C30.8301 10.1348 31.2422 10.1348 32.0664 10.1348C32.0664 10.1348 30.8438 13.0898 28.3984 19C28.3984 19 27.9902 19 27.1738 19C27.1738 19 28.3926 16.0449 30.8301 10.1348ZM32.3594 14.8223C32.9492 14.8223 33.4551 15.0352 33.877 15.4609C34.3027 15.8867 34.5156 16.3945 34.5156 16.9844C34.5156 17.5859 34.3027 18.0996 33.877 18.5254C33.4551 18.9473 32.9434 19.1582 32.3418 19.1582C31.7441 19.1582 31.2324 18.9473 30.8066 18.5254C30.3848 18.0996 30.1738 17.5898 30.1738 16.9961C30.1738 16.3828 30.3848 15.8672 30.8066 15.4492C31.2285 15.0312 31.7461 14.8223 32.3594 14.8223ZM32.3301 16.0938C32.0918 16.0938 31.8887 16.1816 31.7207 16.3574C31.5527 16.5293 31.4688 16.7383 31.4688 16.9844C31.4688 17.2305 31.5527 17.4395 31.7207 17.6113C31.8926 17.7832 32.0996 17.8691 32.3418 17.8691C32.5879 17.8691 32.7969 17.7832 32.9688 17.6113C33.1445 17.4395 33.2324 17.2305 33.2324 16.9844C33.2324 16.7383 33.1445 16.5293 32.9688 16.3574C32.793 16.1816 32.5801 16.0938 32.3301 16.0938ZM26.9336 9.97656C27.5234 9.97656 28.0293 10.1895 28.4512 10.6152C28.877 11.041 29.0898 11.5488 29.0898 12.1387C29.0898 12.7402 28.8789 13.252 28.457 13.6738C28.0352 14.0957 27.5234 14.3066 26.9219 14.3066C26.3203 14.3066 25.8066 14.0957 25.3809 13.6738C24.959 13.252 24.748 12.7441 24.748 12.1504C24.748 11.5371 24.959 11.0215 25.3809 10.6035C25.8027 10.1855 26.3203 9.97656 26.9336 9.97656ZM26.9102 11.248C26.6719 11.248 26.4668 11.3359 26.2949 11.5117C26.127 11.6836 26.043 11.8926 26.043 12.1387C26.043 12.3848 26.1289 12.5938 26.3008 12.7656C26.4727 12.9375 26.6797 13.0234 26.9219 13.0234C27.168 13.0234 27.377 12.9375 27.5488 12.7656C27.7207 12.5938 27.8066 12.3848 27.8066 12.1387C27.8066 11.8926 27.7188 11.6836 27.543 11.5117C27.3711 11.3359 27.1602 11.248 26.9102 11.248Z" fill="white"/>
</svg>
