<svg width="39" height="39" viewBox="0 0 39 39" fill="none" xmlns="http://www.w3.org/2000/svg">
<g filter="url(#filter0_b_86_426)">
<path d="M39 19.5C39 30.2696 30.2696 39 19.5 39C8.73045 39 0 30.2696 0 19.5C0 8.73045 8.73045 0 19.5 0C30.2696 0 39 8.73045 39 19.5Z" fill="white" fill-opacity="0.7"/>
<path d="M38.5 19.5C38.5 29.9934 29.9934 38.5 19.5 38.5C9.00659 38.5 0.5 29.9934 0.5 19.5C0.5 9.00659 9.00659 0.5 19.5 0.5C29.9934 0.5 38.5 9.00659 38.5 19.5Z" stroke="#F2F3F5"/>
</g>
<path d="M26.2246 15.9852C25.989 15.4396 25.6493 14.9452 25.2244 14.5297C24.7993 14.1129 24.298 13.7817 23.7479 13.5541C23.1774 13.3171 22.5656 13.1959 21.9479 13.1973C21.0813 13.1973 20.2357 13.4346 19.501 13.8828C19.3252 13.9901 19.1582 14.1078 19 14.2361C18.8418 14.1078 18.6748 13.9901 18.499 13.8828C17.7643 13.4346 16.9187 13.1973 16.0521 13.1973C15.4281 13.1973 14.8234 13.3168 14.2521 13.5541C13.7002 13.7826 13.2027 14.1113 12.7756 14.5297C12.3502 14.9448 12.0104 15.4393 11.7754 15.9852C11.5311 16.5529 11.4062 17.1559 11.4062 17.7764C11.4062 18.3617 11.5258 18.9717 11.7631 19.5922C11.9617 20.1108 12.2465 20.6486 12.6104 21.1918C13.1869 22.0514 13.9797 22.9479 14.9641 23.8567C16.5953 25.3631 18.2107 26.4037 18.2793 26.4459L18.6959 26.7131C18.8805 26.8309 19.1178 26.8309 19.3023 26.7131L19.7189 26.4459C19.7875 26.402 21.4012 25.3631 23.0342 23.8567C24.0186 22.9479 24.8113 22.0514 25.3879 21.1918C25.7518 20.6486 26.0383 20.1108 26.2352 19.5922C26.4725 18.9717 26.592 18.3617 26.592 17.7764C26.5938 17.1559 26.4689 16.5529 26.2246 15.9852Z" fill="#090B18"/>
<defs>
<filter id="filter0_b_86_426" x="-10" y="-10" width="59" height="59" filterUnits="userSpaceOnUse" color-interpolation-filters="sRGB">
<feFlood flood-opacity="0" result="BackgroundImageFix"/>
<feGaussianBlur in="BackgroundImageFix" stdDeviation="5"/>
<feComposite in2="SourceAlpha" operator="in" result="effect1_backgroundBlur_86_426"/>
<feBlend mode="normal" in="SourceGraphic" in2="effect1_backgroundBlur_86_426" result="shape"/>
</filter>
</defs>
</svg>
