<svg width="90" height="30" viewBox="0 0 90 30" fill="none" xmlns="http://www.w3.org/2000/svg">
<path fill-rule="evenodd" clip-rule="evenodd" d="M15 0C6.71573 0 0 6.71573 0 15C0 23.2843 6.71573 30 15 30C17.5584 30 19.9673 29.3595 22.0749 28.2301C23.8714 27.2674 26.1286 27.2674 27.9251 28.2301C30.0327 29.3595 32.4416 30 35 30C37.5584 30 39.9673 29.3595 42.0749 28.2301C43.8714 27.2674 46.1286 27.2674 47.9251 28.2301C50.0327 29.3595 52.4416 30 55 30C57.5584 30 59.9673 29.3595 62.0749 28.2301C63.8714 27.2674 66.1286 27.2674 67.9251 28.2301C70.0327 29.3595 72.4416 30 75 30C83.2843 30 90 23.2843 90 15C90 6.71573 83.2843 0 75 0C72.4416 0 70.0327 0.64052 67.9251 1.76995C66.1286 2.73264 63.8714 2.73264 62.0749 1.76995C59.9673 0.64052 57.5584 0 55 0C52.4416 0 50.0327 0.640519 47.9251 1.76995C46.1286 2.73264 43.8714 2.73264 42.0749 1.76995C39.9673 0.640519 37.5584 0 35 0C32.4416 0 30.0327 0.640519 27.9251 1.76995C26.1286 2.73264 23.8714 2.73264 22.0749 1.76995C19.9673 0.640519 17.5584 0 15 0Z" fill="#FF3A44"/>
<path d="M10.0352 19C10.0352 19 10.8203 17.8555 12.3906 15.5664C12.3906 15.5664 11.709 14.4941 10.3457 12.3496C10.3457 12.3496 10.9473 12.3496 12.1504 12.3496C12.1504 12.3496 12.5488 13.0176 13.3457 14.3535C13.3457 14.3535 13.7383 13.6855 14.5234 12.3496C14.5234 12.3496 15.123 12.3496 16.3223 12.3496C16.3223 12.3496 15.6465 13.4219 14.2949 15.5664C14.2949 15.5664 15.084 16.7109 16.6621 19C16.6621 19 16.0215 19 14.7402 19C14.7402 19 14.2754 18.2402 13.3457 16.7207C13.3457 16.7207 12.8828 17.4805 11.957 19C11.957 19 11.3164 19 10.0352 19ZM21.9004 12.3496C21.9004 12.3496 22.4395 12.3496 23.5176 12.3496C23.5176 12.3496 23.5176 14.5664 23.5176 19C23.5176 19 22.9902 19 21.9355 19C21.9355 19 21.9355 17.5352 21.9355 14.6055C21.9355 14.6055 20.9434 16.0703 18.959 19C18.959 19 18.4199 19 17.3418 19C17.3418 19 17.3418 16.7832 17.3418 12.3496C17.3418 12.3496 17.8691 12.3496 18.9238 12.3496C18.9238 12.3496 18.9238 13.8145 18.9238 16.7441C18.9238 16.7441 19.916 15.2793 21.9004 12.3496ZM29.0781 13.8027C29.0781 13.8027 28.5605 13.8027 27.5254 13.8027C27.5254 13.8027 27.5254 15.5352 27.5254 19C27.5254 19 26.9941 19 25.9316 19C25.9316 19 25.9316 17.2676 25.9316 13.8027C25.9316 13.8027 25.416 13.8027 24.3848 13.8027C24.3848 13.8027 24.3848 13.3184 24.3848 12.3496C24.3848 12.3496 25.9492 12.3496 29.0781 12.3496C29.0781 12.3496 29.0781 12.834 29.0781 13.8027ZM39.4199 19C39.4199 19 38.8887 19 37.8262 19C37.8262 19 37.8262 17.2676 37.8262 13.8027C37.8262 13.8027 36.8496 13.8027 34.8965 13.8027C34.8965 13.8027 34.8965 15.5352 34.8965 19C34.8965 19 34.3652 19 33.3027 19C33.3027 19 33.3027 16.7832 33.3027 12.3496H39.4199C39.4199 12.3496 39.4199 14.5664 39.4199 19ZM40.7207 21.2207C40.7207 21.2207 40.7207 18.2637 40.7207 12.3496C40.7207 12.3496 41.207 12.3496 42.1797 12.3496C42.1797 12.3496 42.1797 12.6113 42.1797 13.1348C42.707 12.5098 43.4355 12.1973 44.3652 12.1973C44.998 12.1973 45.5664 12.3457 46.0703 12.6426C46.5742 12.9355 46.9668 13.3457 47.248 13.873C47.5332 14.4004 47.6758 14.9941 47.6758 15.6543C47.6758 16.3184 47.5332 16.918 47.248 17.4531C46.9629 17.9844 46.5664 18.4023 46.0586 18.707C45.5547 19.0078 44.9863 19.1582 44.3535 19.1582C43.9473 19.1582 43.582 19.0957 43.2578 18.9707C42.9336 18.8457 42.6191 18.6484 42.3145 18.3789V21.2207H40.7207ZM44.125 13.6621C43.5859 13.6621 43.1328 13.8574 42.7656 14.248C42.4023 14.6348 42.2207 15.1191 42.2207 15.7012C42.2207 16.2676 42.4082 16.7422 42.7832 17.125C43.1582 17.5039 43.6211 17.6934 44.1719 17.6934C44.707 17.6934 45.1562 17.502 45.5195 17.1191C45.8867 16.7324 46.0703 16.2559 46.0703 15.6895C46.0703 15.1035 45.8867 14.6191 45.5195 14.2363C45.1523 13.8535 44.6875 13.6621 44.125 13.6621ZM51.918 12.1973C52.5508 12.1973 53.1367 12.3535 53.6758 12.666C54.2148 12.9785 54.6406 13.4043 54.9531 13.9434C55.2656 14.4785 55.4219 15.0605 55.4219 15.6895C55.4219 16.3145 55.2637 16.8945 54.9473 17.4297C54.6348 17.9609 54.207 18.3828 53.6641 18.6953C53.1211 19.0039 52.5312 19.1582 51.8945 19.1582C51.2539 19.1582 50.6602 19.0039 50.1133 18.6953C49.5703 18.3828 49.1406 17.9609 48.8242 17.4297C48.5078 16.8945 48.3496 16.3145 48.3496 15.6895C48.3496 15.2129 48.4414 14.7598 48.625 14.3301C48.8125 13.8965 49.0645 13.5254 49.3809 13.2168C49.7012 12.9043 50.082 12.6562 50.5234 12.4727C50.9648 12.2891 51.4297 12.1973 51.918 12.1973ZM51.8535 13.6621C51.3379 13.6621 50.8926 13.8613 50.5176 14.2598C50.1465 14.6543 49.9609 15.127 49.9609 15.6777C49.9609 16.2324 50.1484 16.707 50.5234 17.1016C50.8984 17.4961 51.3496 17.6934 51.877 17.6934C52.4082 17.6934 52.8633 17.498 53.2422 17.1074C53.6211 16.7129 53.8105 16.2402 53.8105 15.6895C53.8105 15.1191 53.6211 14.6387 53.2422 14.248C52.8633 13.8574 52.4004 13.6621 51.8535 13.6621ZM63.5195 20.582C63.5195 20.582 63.1387 20.582 62.377 20.582C62.377 20.582 62.2656 20.0547 62.043 19C62.043 19 60.4062 19 57.1328 19C57.1328 19 57.0215 19.5273 56.7988 20.582C56.7988 20.582 56.4141 20.582 55.6445 20.582C55.6445 20.582 55.6445 19.5703 55.6445 17.5469C55.6445 17.5469 55.9863 17.5469 56.6699 17.5469C56.6699 17.5469 57.4082 15.8145 58.8848 12.3496C58.8848 12.3496 59.3496 12.3496 60.2793 12.3496C60.2793 12.3496 61.0195 14.082 62.5 17.5469C62.5 17.5469 62.8398 17.5469 63.5195 17.5469C63.5195 17.5469 63.5195 18.5586 63.5195 20.582ZM60.8418 17.5469C60.8418 17.5469 60.4219 16.5469 59.582 14.5469C59.582 14.5469 59.1621 15.5469 58.3223 17.5469C58.3223 17.5469 59.1621 17.5469 60.8418 17.5469ZM70.7676 12.3496C70.7676 12.3496 70.7676 14.5664 70.7676 19C70.7676 19 70.2812 19 69.3086 19C69.3086 19 69.3086 18.7129 69.3086 18.1387C68.9883 18.502 68.6562 18.7637 68.3125 18.9238C67.9727 19.0801 67.5684 19.1582 67.0996 19.1582C66.459 19.1582 65.8828 19.0117 65.3711 18.7188C64.8633 18.4219 64.4648 18.0098 64.1758 17.4824C63.8906 16.9551 63.748 16.3613 63.748 15.7012C63.748 15.0332 63.8926 14.4336 64.1816 13.9023C64.4707 13.3672 64.873 12.9492 65.3887 12.6484C65.9043 12.3477 66.4863 12.1973 67.1348 12.1973C67.6152 12.1973 68.0293 12.2812 68.377 12.4492C68.7246 12.6133 69.0352 12.877 69.3086 13.2402V12.3496H70.7676ZM67.2754 13.6621C66.7207 13.6621 66.2617 13.8574 65.8984 14.248C65.5391 14.6387 65.3594 15.1348 65.3594 15.7363C65.3594 16.3184 65.541 16.791 65.9043 17.1543C66.2715 17.5137 66.7461 17.6934 67.3281 17.6934C67.9062 17.6934 68.3711 17.5098 68.7227 17.1426C69.0781 16.7754 69.2559 16.2949 69.2559 15.7012C69.2559 15.0996 69.0703 14.6094 68.6992 14.2305C68.332 13.8516 67.8574 13.6621 67.2754 13.6621ZM77.1309 15.4492C77.1309 15.4492 77.8262 14.416 79.2168 12.3496C79.2168 12.3496 79.8379 12.3496 81.0801 12.3496C81.0801 12.3496 80.2832 13.4512 78.6895 15.6543C78.6895 15.6543 79.5332 16.7695 81.2207 19C81.2207 19 80.5723 19 79.2754 19C79.2754 19 78.5605 17.9688 77.1309 15.9062C77.1309 15.9062 77.1309 16.9375 77.1309 19C77.1309 19 76.5977 19 75.5312 19C75.5312 19 75.5312 17.9688 75.5312 15.9062C75.5312 15.9062 74.8164 16.9375 73.3867 19C73.3867 19 72.7383 19 71.4414 19C71.4414 19 72.2852 17.8848 73.9727 15.6543C73.9727 15.6543 73.1777 14.5527 71.5879 12.3496C71.5879 12.3496 72.207 12.3496 73.4453 12.3496C73.4453 12.3496 74.1406 13.3828 75.5312 15.4492C75.5312 15.4492 75.5312 14.416 75.5312 12.3496C75.5312 12.3496 76.0645 12.3496 77.1309 12.3496C77.1309 12.3496 77.1309 13.3828 77.1309 15.4492Z" fill="white"/>
</svg>
