<svg width="104" height="24" viewBox="0 0 104 24" fill="none" xmlns="http://www.w3.org/2000/svg">
<path d="M3.97715 9.8398C4.06065 8.8007 4.92827 8 5.97072 8H18.0293C19.0717 8 19.9393 8.8007 20.0228 9.8398L20.8264 19.8398C20.9199 21.0038 20.0006 22 18.8328 22H5.16715C3.99942 22 3.08004 21.0038 3.17358 19.8398L3.97715 9.8398Z" stroke="white" stroke-width="2" stroke-linecap="round" stroke-linejoin="round"/>
<path d="M16 11V6C16 3.79086 14.2091 2 12 2C9.79086 2 8 3.79086 8 6V11" stroke="white" stroke-width="2" stroke-linecap="round" stroke-linejoin="round"/>
<path d="M35.0664 17.5C35.0664 17.5 35.0664 14.0524 35.0664 7.15723C35.0664 7.15723 35.873 7.15723 37.4863 7.15723C38.1107 7.15723 38.6279 7.20508 39.0381 7.30078C39.4528 7.39648 39.8083 7.54915 40.1045 7.75879C40.3962 7.97298 40.6217 8.26237 40.7812 8.62695C40.9453 8.99154 41.0273 9.39714 41.0273 9.84375C41.0273 10.3587 40.9339 10.7894 40.7471 11.1357C40.5648 11.4775 40.2754 11.7601 39.8789 11.9834C40.4805 12.2386 40.9202 12.569 41.1982 12.9746C41.4762 13.3802 41.6152 13.8997 41.6152 14.5332C41.6152 15.0664 41.5127 15.5472 41.3076 15.9756C41.1025 16.3994 40.8177 16.7253 40.4531 16.9531C40.125 17.1491 39.7422 17.2904 39.3047 17.377C38.8717 17.459 38.3112 17.5 37.623 17.5H35.0664ZM36.0986 16.5635H37.5137C38.5391 16.5635 39.2865 16.4359 39.7559 16.1807C40.002 16.0531 40.1979 15.8457 40.3438 15.5586C40.4941 15.2669 40.5693 14.9434 40.5693 14.5879C40.5693 14.1276 40.4622 13.7357 40.248 13.4121C40.0384 13.084 39.7467 12.8607 39.373 12.7422C38.9219 12.61 38.2406 12.5439 37.3291 12.5439H36.0986V16.5635ZM36.0986 11.6074H37.3633C37.8281 11.6074 38.1927 11.5892 38.457 11.5527C38.7259 11.5117 38.9674 11.4411 39.1816 11.3408C39.4414 11.2223 39.6374 11.0355 39.7695 10.7803C39.9062 10.5251 39.9746 10.2174 39.9746 9.85742C39.9746 9.55208 39.9199 9.27181 39.8105 9.0166C39.7012 8.76139 39.5553 8.57454 39.373 8.45605C39.1816 8.32389 38.9287 8.23047 38.6143 8.17578C38.3044 8.12109 37.8805 8.09375 37.3428 8.09375H36.0986V11.6074ZM46.8037 9.84375C46.8037 9.84375 47.1501 9.84375 47.8428 9.84375C47.8428 9.84375 47.8428 10.9808 47.8428 13.2549C47.8428 13.2549 49.0094 12.1178 51.3428 9.84375C51.3428 9.84375 51.7894 9.84375 52.6826 9.84375C52.6826 9.84375 51.4089 11.0788 48.8613 13.5488C48.8613 13.5488 50.1351 14.8659 52.6826 17.5C52.6826 17.5 52.2314 17.5 51.3291 17.5C51.3291 17.5 50.167 16.2969 47.8428 13.8906C47.8428 13.8906 47.8428 15.0938 47.8428 17.5C47.8428 17.5 47.4964 17.5 46.8037 17.5C46.8037 17.5 46.8037 14.9479 46.8037 9.84375ZM57.1465 9.65918C57.8893 9.65918 58.5592 9.83464 59.1562 10.1855C59.7578 10.5319 60.2272 11.0127 60.5645 11.6279C60.9062 12.2432 61.0771 12.9313 61.0771 13.6924C61.0771 14.8408 60.708 15.7933 59.9697 16.5498C59.2314 17.3063 58.2995 17.6846 57.1738 17.6846C56.4036 17.6846 55.7064 17.5114 55.082 17.165C54.4577 16.8187 53.9678 16.3402 53.6123 15.7295C53.2614 15.1188 53.0859 14.4352 53.0859 13.6787C53.0859 12.5166 53.4688 11.5573 54.2344 10.8008C55 10.0397 55.9707 9.65918 57.1465 9.65918ZM57.0645 10.6094C56.2259 10.6094 55.5286 10.9033 54.9727 11.4912C54.4167 12.0745 54.1387 12.8083 54.1387 13.6924C54.1387 14.5674 54.4235 15.292 54.9932 15.8662C55.5628 16.4404 56.2806 16.7275 57.1465 16.7275C57.9896 16.7275 58.68 16.445 59.2178 15.8799C59.7601 15.3102 60.0312 14.5856 60.0312 13.7061C60.0312 12.8037 59.7533 12.0632 59.1973 11.4844C58.6413 10.901 57.9303 10.6094 57.0645 10.6094ZM62.5537 9.84375C62.5537 9.84375 62.9001 9.84375 63.5928 9.84375C63.5928 9.84375 63.5928 10.2812 63.5928 11.1562C63.9118 10.6686 64.3265 10.2972 64.8369 10.042C65.3519 9.78678 65.9398 9.65918 66.6006 9.65918C67.3525 9.65918 68.0361 9.83464 68.6514 10.1855C69.2666 10.5365 69.7497 11.0195 70.1006 11.6348C70.4561 12.2454 70.6338 12.9268 70.6338 13.6787C70.6338 14.4215 70.4561 15.1006 70.1006 15.7158C69.7451 16.3265 69.2552 16.8073 68.6309 17.1582C68.0111 17.5091 67.3252 17.6846 66.5732 17.6846C65.9398 17.6846 65.3678 17.557 64.8574 17.3018C64.3516 17.042 63.93 16.6683 63.5928 16.1807V20.1865H62.5537V9.84375ZM66.5186 10.6094C65.6755 10.6094 64.9645 10.9056 64.3857 11.498C63.807 12.0905 63.5176 12.8174 63.5176 13.6787C63.5176 14.54 63.8092 15.2646 64.3926 15.8525C64.9759 16.4359 65.6982 16.7275 66.5596 16.7275C67.4209 16.7275 68.1387 16.4404 68.7129 15.8662C69.2917 15.2874 69.5811 14.5674 69.5811 13.7061C69.5811 12.8037 69.2917 12.0632 68.7129 11.4844C68.1387 10.901 67.4072 10.6094 66.5186 10.6094ZM73.71 13.8906V13.0361C74.3844 13.0361 74.888 12.9245 75.2207 12.7012C75.5579 12.4733 75.7266 12.1634 75.7266 11.7715C75.7266 11.457 75.5876 11.1882 75.3096 10.9648C75.0316 10.737 74.6943 10.623 74.2979 10.623C73.9105 10.623 73.5869 10.7347 73.3271 10.958C73.0719 11.1768 72.9307 11.4479 72.9033 11.7715H71.8506C71.8779 11.1745 72.124 10.6732 72.5889 10.2676C73.0537 9.86198 73.6279 9.65918 74.3115 9.65918C74.9997 9.65918 75.583 9.86426 76.0615 10.2744C76.54 10.68 76.7793 11.179 76.7793 11.7715C76.7793 12.1406 76.6654 12.4801 76.4375 12.79C76.2142 13.0954 75.918 13.3027 75.5488 13.4121C76.0273 13.5443 76.4193 13.7676 76.7246 14.082C77.0299 14.3965 77.1826 14.7975 77.1826 15.2852C77.1826 15.9505 76.9069 16.5179 76.3555 16.9873C75.804 17.4521 75.1296 17.6846 74.332 17.6846C73.5436 17.6846 72.876 17.4544 72.3291 16.9941C71.7868 16.5293 71.502 15.9596 71.4746 15.2852H72.5205C72.5479 15.6953 72.7279 16.0394 73.0605 16.3174C73.3932 16.5908 73.8102 16.7275 74.3115 16.7275C74.8219 16.7275 75.2526 16.5885 75.6035 16.3105C75.959 16.028 76.1367 15.6862 76.1367 15.2852C76.1367 14.875 75.9362 14.54 75.5352 14.2803C75.1341 14.0205 74.5257 13.8906 73.71 13.8906ZM84.2783 9.84375C84.2783 9.84375 84.6224 9.84375 85.3105 9.84375C85.3105 9.84375 85.3105 12.3958 85.3105 17.5C85.3105 17.5 84.9665 17.5 84.2783 17.5C84.2783 17.5 84.2783 15.4378 84.2783 11.3135C84.2783 11.3135 82.7243 13.3757 79.6162 17.5C79.6162 17.5 79.2699 17.5 78.5771 17.5C78.5771 17.5 78.5771 14.9479 78.5771 9.84375C78.5771 9.84375 78.9235 9.84375 79.6162 9.84375C79.6162 9.84375 79.6162 11.9059 79.6162 16.0303C79.6162 16.0303 81.1702 13.9681 84.2783 9.84375ZM93.7461 17.5C93.7461 17.5 93.3997 17.5 92.707 17.5C92.707 17.5 92.707 16.3561 92.707 14.0684C92.707 14.0684 91.1781 14.0684 88.1201 14.0684C88.1201 14.0684 88.1201 15.2122 88.1201 17.5C88.1201 17.5 87.7738 17.5 87.0811 17.5C87.0811 17.5 87.0811 14.9479 87.0811 9.84375C87.0811 9.84375 87.4274 9.84375 88.1201 9.84375C88.1201 9.84375 88.1201 10.9398 88.1201 13.1318C88.1201 13.1318 89.6491 13.1318 92.707 13.1318C92.707 13.1318 92.707 12.0358 92.707 9.84375C92.707 9.84375 93.0534 9.84375 93.7461 9.84375C93.7461 9.84375 93.7461 12.3958 93.7461 17.5ZM103.173 14.0137C103.173 14.0137 100.865 14.0137 96.248 14.0137C96.2891 14.7702 96.599 15.4128 97.1777 15.9414C97.7565 16.4655 98.4401 16.7275 99.2285 16.7275C99.8118 16.7275 100.35 16.568 100.842 16.249C101.334 15.9255 101.687 15.5016 101.901 14.9775H102.981C102.699 15.7842 102.216 16.4382 101.532 16.9395C100.849 17.4362 100.09 17.6846 99.2559 17.6846C98.6999 17.6846 98.1712 17.5798 97.6699 17.3701C97.1686 17.1605 96.738 16.8757 96.3779 16.5156C96.0179 16.1556 95.7331 15.7249 95.5234 15.2236C95.3138 14.7223 95.209 14.1937 95.209 13.6377C95.209 12.9085 95.3844 12.2386 95.7354 11.6279C96.0863 11.0173 96.5648 10.5365 97.1709 10.1855C97.777 9.83464 98.4447 9.65918 99.1738 9.65918C99.9303 9.65918 100.625 9.84603 101.259 10.2197C101.897 10.5934 102.382 11.1016 102.715 11.7441C102.883 12.0677 103.002 12.4004 103.07 12.7422C103.139 13.0794 103.173 13.5033 103.173 14.0137ZM96.2754 13.0771H102.141C101.967 12.3161 101.614 11.7145 101.081 11.2725C100.552 10.8304 99.9167 10.6094 99.1738 10.6094C98.4492 10.6094 97.8203 10.8372 97.2871 11.293C96.7539 11.7441 96.4167 12.3389 96.2754 13.0771Z" fill="white"/>
</svg>
