<svg width="24" height="24" viewBox="0 0 24 24" fill="none" xmlns="http://www.w3.org/2000/svg">
<circle opacity="0.1" cx="12" cy="12" r="12" fill="#4789EB"/>
<path fill-rule="evenodd" clip-rule="evenodd" d="M6.66982 12.1773C6.66982 12.0368 6.72559 11.9022 6.82488 11.8029C6.92416 11.7036 7.05882 11.6478 7.19923 11.6478H15.1337L12.8604 9.37561C12.761 9.2762 12.7052 9.14137 12.7052 9.00078C12.7052 8.8602 12.761 8.72537 12.8604 8.62596C12.9598 8.52655 13.0947 8.4707 13.2352 8.4707C13.3758 8.4707 13.5107 8.52655 13.6101 8.62596L16.7865 11.8024C16.8358 11.8516 16.875 11.91 16.9017 11.9743C16.9283 12.0387 16.9421 12.1076 16.9421 12.1773C16.9421 12.2469 16.9283 12.3158 16.9017 12.3802C16.875 12.4445 16.8358 12.5029 16.7865 12.5521L13.6101 15.7285C13.5107 15.828 13.3758 15.8838 13.2352 15.8838C13.0947 15.8838 12.9598 15.828 12.8604 15.7285C12.761 15.6291 12.7052 15.4943 12.7052 15.3537C12.7052 15.2131 12.761 15.0783 12.8604 14.9789L15.1337 12.7067H7.19923C7.05882 12.7067 6.92416 12.6509 6.82488 12.5516C6.72559 12.4523 6.66982 12.3177 6.66982 12.1773Z" fill="#090B18"/>
</svg>
