<svg width="50" height="30" viewBox="0 0 50 30" fill="none" xmlns="http://www.w3.org/2000/svg">
<path fill-rule="evenodd" clip-rule="evenodd" d="M15 0C6.71573 0 0 6.71573 0 15C0 23.2843 6.71573 30 15 30C17.5584 30 19.9673 29.3595 22.0749 28.2301C23.8714 27.2674 26.1286 27.2674 27.9251 28.2301C30.0327 29.3595 32.4416 30 35 30C43.2843 30 50 23.2843 50 15C50 6.71573 43.2843 0 35 0C32.4416 0 30.0327 0.640519 27.9251 1.76995C26.1286 2.73264 23.8714 2.73264 22.0749 1.76995C19.9673 0.640519 17.5584 0 15 0Z" fill="#090B18"/>
<path d="M13.6504 19C13.6504 19 13.6504 16.7832 13.6504 12.3496C13.6504 12.3496 14.1406 12.3496 15.1211 12.3496C15.1211 12.3496 15.1211 12.5625 15.1211 12.9883C15.4141 12.7031 15.7031 12.5 15.9883 12.3789C16.2734 12.2578 16.6094 12.1973 16.9961 12.1973C17.9648 12.1973 18.6719 12.5371 19.1172 13.2168C19.2773 13.4746 19.3887 13.7656 19.4512 14.0898C19.5176 14.4141 19.5508 14.8633 19.5508 15.4375V19H17.957C17.957 19 17.957 17.916 17.957 15.748C17.957 14.8887 17.8438 14.3242 17.6172 14.0547C17.4023 13.793 17.0918 13.6621 16.6855 13.6621C16.1387 13.6621 15.7422 13.877 15.4961 14.3066C15.3984 14.459 15.332 14.6484 15.2969 14.875C15.2617 15.1016 15.2441 15.4316 15.2441 15.8652V19C15.2441 19 14.7129 19 13.6504 19ZM27.3848 16.3867C27.3848 16.3867 25.668 16.3867 22.2344 16.3867C22.332 16.7891 22.5449 17.1074 22.873 17.3418C23.2012 17.5762 23.6016 17.6934 24.0742 17.6934C24.4023 17.6934 24.6758 17.6445 24.8945 17.5469C25.1133 17.4453 25.3262 17.2734 25.5332 17.0312H27.2734C27.1797 17.332 27.0039 17.6406 26.7461 17.957C26.0586 18.7578 25.1797 19.1582 24.1094 19.1582C23.6094 19.1582 23.1367 19.0684 22.6914 18.8887C22.2461 18.709 21.8633 18.4668 21.543 18.1621C21.2266 17.8535 20.9746 17.4863 20.7871 17.0605C20.5996 16.6309 20.5059 16.1777 20.5059 15.7012C20.5059 15.0605 20.6602 14.4727 20.9688 13.9375C21.2812 13.3984 21.7051 12.9746 22.2402 12.666C22.7793 12.3535 23.3691 12.1973 24.0098 12.1973C24.6621 12.1973 25.25 12.3516 25.7734 12.6602C26.2969 12.9648 26.7051 13.3906 26.998 13.9375C27.2949 14.4805 27.4434 15.0918 27.4434 15.7715C27.4434 15.9902 27.4238 16.1953 27.3848 16.3867ZM22.1875 14.9805H25.873C25.7715 14.5547 25.5625 14.2285 25.2461 14.002C24.9297 13.7754 24.5254 13.6621 24.0332 13.6621C23.5566 13.6621 23.1602 13.7754 22.8438 14.002C22.5312 14.2246 22.3125 14.5508 22.1875 14.9805ZM29.8867 19C29.8867 19 29.0938 16.7832 27.5078 12.3496C27.5078 12.3496 28.0801 12.3496 29.2246 12.3496C29.2246 12.3496 29.6211 13.7031 30.4141 16.4102C30.4141 16.4102 30.7852 15.0566 31.5273 12.3496C31.5273 12.3496 31.9512 12.3496 32.7988 12.3496C32.7988 12.3496 33.1641 13.7031 33.8945 16.4102C33.8945 16.4102 34.2988 15.0566 35.1074 12.3496C35.1074 12.3496 35.6738 12.3496 36.8066 12.3496C36.8066 12.3496 36.0078 14.5664 34.4102 19C34.4102 19 34.0781 19 33.4141 19C33.4141 19 32.9941 17.5645 32.1543 14.6934C32.1543 14.6934 31.7266 16.1289 30.8711 19C30.8711 19 30.543 19 29.8867 19Z" fill="white"/>
</svg>
