<svg width="64" height="64" viewBox="0 0 64 64" fill="none" xmlns="http://www.w3.org/2000/svg">
<circle cx="32" cy="32" r="32" fill="#090B18"/>
<path fill-rule="evenodd" clip-rule="evenodd" d="M23.1202 38.7781C22.9641 38.5372 22.9101 38.2442 22.9701 37.9635C23.0301 37.6828 23.1991 37.4374 23.44 37.2813L37.0533 28.4612L30.6272 27.0898C30.3461 27.0297 30.1004 26.8605 29.9441 26.6193C29.7878 26.378 29.7338 26.0846 29.7938 25.8036C29.8539 25.5225 30.0231 25.2768 30.2643 25.1205C30.5056 24.9643 30.799 24.9102 31.08 24.9703L40.0609 26.8892C40.2002 26.9187 40.3323 26.9755 40.4495 27.0562C40.5668 27.1369 40.6671 27.2399 40.7445 27.3594C40.8219 27.4789 40.8749 27.6124 40.9006 27.7524C40.9264 27.8925 40.9242 28.0362 40.8943 28.1754L38.9753 37.1563C38.9153 37.4373 38.746 37.683 38.5048 37.8393C38.2636 37.9956 37.9702 38.0497 37.6892 37.9896C37.4081 37.9295 37.1624 37.7603 37.0061 37.5191C36.8498 37.2779 36.7958 36.9845 36.8558 36.7034L38.2303 30.2779L24.617 39.098C24.3761 39.254 24.0831 39.308 23.8023 39.2481C23.5216 39.1881 23.2763 39.019 23.1202 38.7781Z" fill="white"/>
</svg>
