<svg width="62" height="62" viewBox="0 0 62 62" fill="none" xmlns="http://www.w3.org/2000/svg">
<circle opacity="0.05" cx="31" cy="31" r="31" fill="#4789EB"/>
<path fill-rule="evenodd" clip-rule="evenodd" d="M25.6911 35.6912C25.5513 35.5513 25.4727 35.3617 25.4727 35.164C25.4727 34.9662 25.5513 34.7766 25.6911 34.6368L33.5926 26.7353L29.0659 26.7363C28.868 26.7363 28.6781 26.6577 28.5381 26.5177C28.3981 26.3777 28.3194 26.1878 28.3194 25.9898C28.3194 25.7918 28.3981 25.6019 28.5381 25.4619C28.6781 25.3219 28.868 25.2433 29.0659 25.2433L35.3925 25.2433C35.4905 25.2432 35.5877 25.2624 35.6783 25.2998C35.7689 25.3373 35.8513 25.3923 35.9206 25.4617C35.99 25.531 36.0449 25.6133 36.0824 25.704C36.1199 25.7946 36.1391 25.8917 36.139 25.9898L36.139 32.3163C36.139 32.5143 36.0603 32.7042 35.9203 32.8442C35.7803 32.9842 35.5904 33.0628 35.3925 33.0628C35.1945 33.0628 35.0046 32.9842 34.8646 32.8442C34.7246 32.7042 34.6459 32.5143 34.6459 32.3163L34.647 27.7897L26.7455 35.6912C26.6057 35.831 26.416 35.9096 26.2183 35.9096C26.0206 35.9096 25.8309 35.831 25.6911 35.6912Z" fill="#090B18"/>
</svg>
