<svg width="92" height="19" viewBox="0 0 92 19" fill="none" xmlns="http://www.w3.org/2000/svg">
<path d="M8.0988 3.44446C8.38203 2.51806 9.68524 2.49532 10.0006 3.41126L10.8909 5.99693C11.032 6.40655 11.4208 6.67877 11.8539 6.67121L14.5882 6.62348C15.5567 6.60658 15.9811 7.83897 15.2074 8.42197L13.0234 10.0677C12.6774 10.3284 12.5387 10.7823 12.6797 11.1919L13.57 13.7776C13.8854 14.6935 12.8445 15.478 12.0509 14.9223L9.81085 13.3538C9.45597 13.1053 8.98144 13.1136 8.63545 13.3743L6.45146 15.0201C5.6778 15.603 4.61011 14.8554 4.89334 13.929L5.69288 11.3139C5.81954 10.8996 5.66503 10.4508 5.31015 10.2024L3.07005 8.63383C2.27652 8.07819 2.6576 6.83173 3.62617 6.81482L6.36041 6.7671C6.79357 6.75954 7.1726 6.47392 7.29927 6.05962L8.0988 3.44446Z" fill="#090B18"/>
<path d="M26.4102 3.44446C26.6934 2.51806 27.9966 2.49532 28.312 3.41126L29.2023 5.99693C29.3434 6.40655 29.7322 6.67877 30.1653 6.67121L32.8996 6.62348C33.8681 6.60658 34.2925 7.83897 33.5188 8.42197L31.3348 10.0677C30.9888 10.3284 30.8501 10.7823 30.9911 11.1919L31.8814 13.7776C32.1968 14.6935 31.1559 15.478 30.3623 14.9223L28.1222 13.3538C27.7674 13.1053 27.2928 13.1136 26.9469 13.3743L24.7629 15.0201C23.9892 15.603 22.9215 14.8554 23.2047 13.929L24.0043 11.3139C24.1309 10.8996 23.9764 10.4508 23.6215 10.2024L21.3815 8.63383C20.5879 8.07819 20.969 6.83173 21.9376 6.81482L24.6718 6.7671C25.105 6.75954 25.484 6.47392 25.6107 6.05962L26.4102 3.44446Z" fill="#090B18"/>
<path d="M44.7216 3.44446C45.0048 2.51806 46.308 2.49532 46.6234 3.41126L47.5137 5.99693C47.6548 6.40655 48.0436 6.67877 48.4767 6.67121L51.211 6.62348C52.1795 6.60658 52.6039 7.83897 51.8302 8.42197L49.6462 10.0677C49.3002 10.3284 49.1615 10.7823 49.3025 11.1919L50.1928 13.7776C50.5082 14.6935 49.4673 15.478 48.6737 14.9223L46.4336 13.3538C46.0788 13.1053 45.6042 13.1136 45.2583 13.3743L43.0743 15.0201C42.3006 15.603 41.2329 14.8554 41.5161 13.929L42.3157 11.3139C42.4423 10.8996 42.2878 10.4508 41.933 10.2024L39.6929 8.63383C38.8993 8.07819 39.2804 6.83173 40.249 6.81482L42.9832 6.7671C43.4164 6.75954 43.7954 6.47392 43.9221 6.05962L44.7216 3.44446Z" fill="#090B18"/>
<path d="M63.033 3.44446C63.3162 2.51806 64.6194 2.49532 64.9348 3.41126L65.8251 5.99693C65.9662 6.40655 66.355 6.67877 66.7881 6.67121L69.5224 6.62348C70.4909 6.60658 70.9153 7.83897 70.1416 8.42197L67.9576 10.0677C67.6116 10.3284 67.4729 10.7823 67.6139 11.1919L68.5042 13.7776C68.8196 14.6935 67.7787 15.478 66.9851 14.9223L64.7451 13.3538C64.3902 13.1053 63.9156 13.1136 63.5697 13.3743L61.3857 15.0201C60.612 15.603 59.5443 14.8554 59.8275 13.929L60.6271 11.3139C60.7537 10.8996 60.5992 10.4508 60.2444 10.2024L58.0043 8.63383C57.2107 8.07819 57.5918 6.83173 58.5604 6.81482L61.2946 6.7671C61.7278 6.75954 62.1068 6.47392 62.2335 6.05962L63.033 3.44446Z" fill="#F2F3F5"/>
<path d="M81.3444 3.44446C81.6276 2.51806 82.9308 2.49532 83.2462 3.41126L84.1365 5.99693C84.2776 6.40655 84.6664 6.67877 85.0995 6.67121L87.8338 6.62348C88.8023 6.60658 89.2267 7.83897 88.453 8.42197L86.269 10.0677C85.923 10.3284 85.7843 10.7823 85.9253 11.1919L86.8156 13.7776C87.131 14.6935 86.0901 15.478 85.2966 14.9223L83.0565 13.3538C82.7016 13.1053 82.227 13.1136 81.8811 13.3743L79.6971 15.0201C78.9234 15.603 77.8557 14.8554 78.1389 13.929L78.9385 11.3139C79.0651 10.8996 78.9106 10.4508 78.5558 10.2024L76.3157 8.63383C75.5221 8.07819 75.9032 6.83173 76.8718 6.81482L79.606 6.7671C80.0392 6.75954 80.4182 6.47392 80.5449 6.05962L81.3444 3.44446Z" fill="#F2F3F5"/>
</svg>
