<svg width="39" height="38" viewBox="0 0 39 38" fill="none" xmlns="http://www.w3.org/2000/svg">
<g filter="url(#filter0_b_86_430)">
<circle cx="19.5" cy="18.5" r="19.5" fill="white" fill-opacity="0.7"/>
<circle cx="19.5" cy="18.5" r="19" stroke="#F2F3F5"/>
</g>
<g clip-path="url(#clip0_86_430)">
<path d="M25.75 25.1875C25.75 25.3367 25.6907 25.4798 25.5852 25.5852C25.4798 25.6907 25.3367 25.75 25.1875 25.75H12.8125C12.6633 25.75 12.5202 25.6907 12.4148 25.5852C12.3093 25.4798 12.25 25.3367 12.25 25.1875C12.25 25.0383 12.3093 24.8952 12.4148 24.7898C12.5202 24.6843 12.6633 24.625 12.8125 24.625H25.1875C25.3367 24.625 25.4798 24.6843 25.5852 24.7898C25.6907 24.8952 25.75 25.0383 25.75 25.1875ZM20.6875 23.5H23.5C23.7984 23.5 24.0845 23.3815 24.2955 23.1705C24.5065 22.9595 24.625 22.6734 24.625 22.375V15.625C24.625 15.3266 24.5065 15.0405 24.2955 14.8295C24.0845 14.6185 23.7984 14.5 23.5 14.5H20.6875C20.3891 14.5 20.103 14.6185 19.892 14.8295C19.681 15.0405 19.5625 15.3266 19.5625 15.625V22.375C19.5625 22.6734 19.681 22.9595 19.892 23.1705C20.103 23.3815 20.3891 23.5 20.6875 23.5ZM14.5 23.5H17.3125C17.6109 23.5 17.897 23.3815 18.108 23.1705C18.319 22.9595 18.4375 22.6734 18.4375 22.375V12.8125C18.4375 12.5141 18.319 12.228 18.108 12.017C17.897 11.806 17.6109 11.6875 17.3125 11.6875H14.5C14.2016 11.6875 13.9155 11.806 13.7045 12.017C13.4935 12.228 13.375 12.5141 13.375 12.8125V22.375C13.375 22.6734 13.4935 22.9595 13.7045 23.1705C13.9155 23.3815 14.2016 23.5 14.5 23.5Z" fill="#090B18"/>
</g>
<defs>
<filter id="filter0_b_86_430" x="-10" y="-11" width="59" height="59" filterUnits="userSpaceOnUse" color-interpolation-filters="sRGB">
<feFlood flood-opacity="0" result="BackgroundImageFix"/>
<feGaussianBlur in="BackgroundImageFix" stdDeviation="5"/>
<feComposite in2="SourceAlpha" operator="in" result="effect1_backgroundBlur_86_430"/>
<feBlend mode="normal" in="SourceGraphic" in2="effect1_backgroundBlur_86_430" result="shape"/>
</filter>
<clipPath id="clip0_86_430">
<rect width="18" height="18" fill="white" transform="translate(10 10)"/>
</clipPath>
</defs>
</svg>
