<svg width="39" height="38" viewBox="0 0 39 38" fill="none" xmlns="http://www.w3.org/2000/svg">
<g filter="url(#filter0_b_86_253)">
<circle cx="19.5" cy="18.5" r="19.5" fill="white" fill-opacity="0.7"/>
<circle cx="19.5" cy="18.5" r="19" stroke="#F2F3F5"/>
</g>
<g clip-path="url(#clip0_86_253)">
<path d="M25.1875 25.1875H12.8125" stroke="#919191" stroke-width="1.125" stroke-linecap="round" stroke-linejoin="round"/>
<path d="M20.125 15.625V22.375C20.125 22.6857 20.3768 22.9375 20.6875 22.9375H23.5C23.8107 22.9375 24.0625 22.6857 24.0625 22.375V15.625C24.0625 15.3143 23.8107 15.0625 23.5 15.0625H20.6875C20.3768 15.0625 20.125 15.3143 20.125 15.625Z" stroke="#919191" stroke-width="1.125" stroke-linecap="round" stroke-linejoin="round"/>
<path d="M17.3125 12.25H14.5C14.1893 12.25 13.9375 12.5018 13.9375 12.8125V22.375C13.9375 22.6857 14.1893 22.9375 14.5 22.9375H17.3125C17.6232 22.9375 17.875 22.6857 17.875 22.375V12.8125C17.875 12.5018 17.6232 12.25 17.3125 12.25Z" stroke="#919191" stroke-width="1.125" stroke-linecap="round" stroke-linejoin="round"/>
</g>
<defs>
<filter id="filter0_b_86_253" x="-10" y="-11" width="59" height="59" filterUnits="userSpaceOnUse" color-interpolation-filters="sRGB">
<feFlood flood-opacity="0" result="BackgroundImageFix"/>
<feGaussianBlur in="BackgroundImageFix" stdDeviation="5"/>
<feComposite in2="SourceAlpha" operator="in" result="effect1_backgroundBlur_86_253"/>
<feBlend mode="normal" in="SourceGraphic" in2="effect1_backgroundBlur_86_253" result="shape"/>
</filter>
<clipPath id="clip0_86_253">
<rect width="18" height="18" fill="white" transform="translate(10 10)"/>
</clipPath>
</defs>
</svg>
