<svg width="21" height="20" viewBox="0 0 21 20" fill="none" xmlns="http://www.w3.org/2000/svg">
<path d="M10.1708 4.81852L10.3617 2.84451C10.4386 2.05108 11.1788 1.51288 11.9273 1.70627C13.0536 1.99727 13.8438 3.04311 13.8438 4.24293V6.77195C13.8438 7.33445 13.8438 7.6157 13.9658 7.8225C14.0349 7.93949 14.1301 8.03778 14.2432 8.10918C14.4433 8.23541 14.7155 8.23541 15.2598 8.23541H15.59C17.009 8.23541 17.7185 8.23541 18.1553 8.56083C18.4822 8.80417 18.7127 9.1615 18.8043 9.56683C18.927 10.1088 18.6541 10.7856 18.1083 12.1393L17.8362 12.8142C17.6791 13.204 17.6147 13.627 17.6487 14.0478C17.8417 16.4423 15.9422 18.4604 13.6209 18.3272L4.93389 17.8284C3.98523 17.7739 3.51089 17.7467 3.08213 17.3674C2.65338 16.9881 2.57272 16.5975 2.41138 15.8165C2.27385 15.1507 2.16667 14.3344 2.16667 13.4074C2.16667 12.3793 2.29851 11.4873 2.45736 10.7859C2.69298 9.7455 3.68683 9.18608 4.71278 9.31858C7.43239 9.66992 9.89808 7.63699 10.1708 4.81852Z" stroke="#090B18" stroke-width="1.66667" stroke-linecap="round" stroke-linejoin="round"/>
<path d="M6.3334 9.58325L6.21924 9.96375C5.48009 12.4276 5.51996 15.0596 6.3334 17.4999" stroke="#090B18" stroke-width="1.66667" stroke-linecap="round" stroke-linejoin="round"/>
</svg>
