<svg width="20" height="20" viewBox="0 0 20 20" fill="none" xmlns="http://www.w3.org/2000/svg">
<g clip-path="url(#clip0_0_786)">
<path d="M8.79524 5.19946L5.97615 1.94664C5.65091 1.57136 5.05538 1.57379 4.67773 1.95194L2.35944 4.27331C1.66948 4.96418 1.47199 5.99025 1.87067 6.81273C4.27199 11.7667 8.2247 15.7247 13.1721 18.1292C13.9935 18.5283 15.0182 18.3306 15.7082 17.6397L18.0485 15.2962C18.4277 14.9167 18.4283 14.3176 18.0502 13.9929L14.783 11.1887C14.4411 10.8952 13.9106 10.9337 13.5679 11.2769L12.4314 12.4149C12.305 12.5415 12.115 12.5717 11.9705 12.4884C10.1095 11.4154 8.57549 9.87941 7.50388 8.01595C7.42066 7.87124 7.45093 7.68096 7.5773 7.55443L8.71032 6.41989C9.05449 6.07528 9.09166 5.54146 8.79524 5.19946Z" stroke="white" stroke-width="1.66667" stroke-linecap="round" stroke-linejoin="round"/>
</g>
<defs>
<clipPath id="clip0_0_786">
<rect width="20" height="20" fill="white"/>
</clipPath>
</defs>
</svg>
