<svg width="16" height="14" viewBox="0 0 16 14" fill="none" xmlns="http://www.w3.org/2000/svg">
<path d="M15.7714 7.38246C15.9125 7.30528 16 7.1589 16 7C16 6.8411 15.9125 6.69471 15.7714 6.61753L13.7427 5.50812C9.74578 3.32228 5.53236 1.54427 1.16819 0.201777L0.577013 0.0199167C0.442062 -0.0215933 0.295093 0.00257415 0.181182 0.0850166C0.0672711 0.167459 0 0.298324 0 0.437501L0 5.46875C0 5.70141 0.185031 5.89338 0.421085 5.90564L1.31854 5.95218C3.50664 6.0655 5.68139 6.35766 7.82036 6.82552L8.03218 6.8719C8.07929 6.88222 8.09973 6.90112 8.11111 6.91617C8.12542 6.93525 8.13653 6.96447 8.13653 7C8.13653 7.03552 8.12542 7.06483 8.11111 7.08382C8.09973 7.09887 8.07929 7.11786 8.03218 7.1281L7.82036 7.17447C5.6814 7.64233 3.50663 7.9345 1.31852 8.0479L0.421085 8.09436C0.185031 8.10661 0 8.29858 0 8.53125L0 13.5625C0 13.7017 0.0672711 13.8325 0.181182 13.915C0.295093 13.9975 0.442062 14.0216 0.577013 13.98L1.1682 13.7982C5.53236 12.4557 9.74578 10.6777 13.7427 8.49187L15.7714 7.38246Z" fill="white"/>
</svg>
