<svg width="54" height="54" viewBox="0 0 54 54" fill="none" xmlns="http://www.w3.org/2000/svg">
<circle cx="27" cy="27" r="27" fill="#090B18"/>
<g clip-path="url(#clip0_0_690)">
<path d="M32.4513 25.0981C32.6099 24.9287 32.6947 24.7032 32.6871 24.4713C32.6795 24.2393 32.58 24.0199 32.4106 23.8613C32.2412 23.7027 32.0157 23.6178 31.7838 23.6255C31.5518 23.6331 31.3324 23.7326 31.1738 23.902L25.2592 30.2195L22.8263 27.6207C22.7477 27.5368 22.6535 27.4692 22.5488 27.4218C22.4441 27.3744 22.3312 27.348 22.2163 27.3442C21.9844 27.3366 21.7589 27.4214 21.5895 27.58C21.4201 27.7386 21.3206 27.9581 21.313 28.19C21.3053 28.422 21.3902 28.6474 21.5488 28.8168L24.6205 32.0981C24.7023 32.1855 24.8012 32.2552 24.9111 32.3029C25.021 32.3505 25.1395 32.3751 25.2592 32.3751C25.379 32.3751 25.4975 32.3505 25.6073 32.3029C25.7172 32.2552 25.8161 32.1855 25.898 32.0981L32.4513 25.0981Z" fill="white"/>
<path fill-rule="evenodd" clip-rule="evenodd" d="M29.5462 15.8804C28.8559 15.2341 27.9456 14.8745 27 14.8745C26.0543 14.8745 25.1441 15.2341 24.4537 15.8804L23.2134 17.0415C22.8641 17.3688 22.4078 17.5582 21.9294 17.5744L20.231 17.6304C19.286 17.6616 18.3882 18.051 17.7196 18.7196C17.051 19.3882 16.6616 20.286 16.6304 21.231L16.5744 22.9289C16.5585 23.4076 16.3693 23.8642 16.0419 24.2139L14.8812 25.4542C14.2352 26.1445 13.8758 27.0546 13.8758 28C13.8758 28.9454 14.2352 29.8555 14.8812 30.5458L16.0419 31.7866C16.3692 32.1361 16.5582 32.5929 16.5744 33.0715L16.6304 34.7694C16.6616 35.7145 17.051 36.6122 17.7196 37.2808C18.3882 37.9494 19.286 38.3388 20.231 38.3701L21.9294 38.4261C22.4079 38.4421 22.8643 38.6313 23.2139 38.9585L24.4546 40.1192C25.1449 40.7652 26.055 41.1246 27.0004 41.1246C27.9459 41.1246 28.8559 40.7652 29.5462 40.1192L30.787 38.9585C31.1366 38.6312 31.5932 38.442 32.0719 38.4261L33.7699 38.3701C34.7149 38.3388 35.6127 37.9494 36.2813 37.2808C36.9499 36.6122 37.3393 35.7145 37.3705 34.7694L37.4265 33.0715C37.4424 32.5928 37.6316 32.1362 37.9589 31.7866L39.1201 30.5458C39.7661 29.8555 40.1255 28.9454 40.1255 28C40.1255 27.0546 39.7661 26.1445 39.1201 25.4542L37.9589 24.2134C37.6317 23.8639 37.4425 23.4075 37.4265 22.9289L37.3705 21.2306C37.3393 20.2855 36.9499 19.3877 36.2813 18.7191C35.6127 18.0505 34.7149 17.6612 33.7699 17.6299L32.0719 17.5739C31.5932 17.5581 31.1366 17.3688 30.787 17.0415L29.5462 15.8804ZM25.6499 17.1579C26.0159 16.8152 26.4986 16.6246 27 16.6246C27.5014 16.6246 27.984 16.8152 28.3501 17.1579L29.5909 18.3194C30.2501 18.9363 31.1109 19.2928 32.0133 19.3226L33.7117 19.3791C34.2128 19.3957 34.6888 19.6021 35.0433 19.9567C35.3978 20.3112 35.6043 20.7872 35.6209 21.2883L35.6774 22.9867C35.7072 23.889 36.0637 24.7499 36.6806 25.4091L37.8417 26.6499C38.1843 27.0159 38.3749 27.4986 38.3749 28C38.3749 28.5014 38.1843 28.984 37.8417 29.3501L36.6806 30.5909C36.0635 31.2501 35.7069 32.1109 35.6769 33.0133L35.6209 34.7117C35.6043 35.2128 35.3978 35.6888 35.0433 36.0433C34.6888 36.3978 34.2128 36.6043 33.7117 36.6209L32.0133 36.6774C31.1108 36.7071 30.2498 37.0636 29.5904 37.6806L28.3501 38.8417C27.984 39.1843 27.5014 39.3749 27 39.3749C26.4986 39.3749 26.0159 39.1843 25.6499 38.8417L24.4096 37.6806C23.7502 37.0634 22.8892 36.7068 21.9867 36.6769L20.2883 36.6209C19.7872 36.6043 19.3112 36.3978 18.9567 36.0433C18.6021 35.6888 18.3957 35.2128 18.3791 34.7117L18.3231 33.0133C18.2932 32.1107 17.9365 31.2497 17.3194 30.5904L16.1583 29.3501C15.8157 28.984 15.625 28.5014 15.625 28C15.625 27.4986 15.8157 27.0159 16.1583 26.6499L17.3194 25.4096C17.9365 24.7503 18.2932 23.8892 18.3231 22.9867L18.3791 21.2883C18.3957 20.7872 18.6021 20.3112 18.9567 19.9567C19.3112 19.6021 19.7872 19.3957 20.2883 19.3791L21.9867 19.3231C22.8892 19.2932 23.7502 18.9365 24.4096 18.3194L25.6499 17.1579Z" fill="white"/>
</g>
<defs>
<clipPath id="clip0_0_690">
<rect width="28" height="28" fill="white" transform="translate(13 14)"/>
</clipPath>
</defs>
</svg>
