<svg width="54" height="54" viewBox="0 0 54 54" fill="none" xmlns="http://www.w3.org/2000/svg">
<circle cx="27" cy="27" r="27" fill="#090B18"/>
<g clip-path="url(#clip0_0_668)">
<path d="M38.7967 20.5458L30.0467 15.7333C29.9175 15.6623 29.7724 15.625 29.625 15.625C29.4776 15.625 29.3325 15.6623 29.2033 15.7333L20.4533 20.5458C20.3162 20.6213 20.2018 20.7323 20.1221 20.8671C20.0424 21.002 20.0004 21.1557 20.0004 21.3123C20.0004 21.4689 20.0424 21.6226 20.1221 21.7575C20.2018 21.8923 20.3162 22.0033 20.4533 22.0788L28.75 26.6422V36.0198L26.0933 34.5592L25.25 36.0921L29.2033 38.2663C29.3325 38.3375 29.4775 38.3748 29.625 38.3748C29.7725 38.3748 29.9175 38.3375 30.0467 38.2663L38.7967 33.4538C38.9339 33.3783 39.0484 33.2674 39.1281 33.1325C39.2079 32.9977 39.25 32.8439 39.25 32.6873V21.3123C39.25 21.1557 39.2079 21.0019 39.1281 20.8671C39.0484 20.7322 38.9339 20.6213 38.7967 20.5458ZM29.625 17.4987L36.5592 21.3123L29.625 25.1259L22.6908 21.3123L29.625 17.4987ZM37.5 32.1699L30.5 36.0199V26.6422L37.5 22.7922V32.1699Z" fill="white"/>
<path d="M14.75 27H21.75V25.25H14.75V27Z" fill="white"/>
<path d="M16.5 34H23.5V32.25H16.5V34Z" fill="white"/>
<path d="M18.25 30.5H25.25V28.75H18.25V30.5Z" fill="white"/>
</g>
<defs>
<clipPath id="clip0_0_668">
<rect width="28" height="28" fill="white" transform="translate(13 13)"/>
</clipPath>
</defs>
</svg>
