<svg width="54" height="54" viewBox="0 0 54 54" fill="none" xmlns="http://www.w3.org/2000/svg">
<circle cx="27" cy="27" r="27" fill="#090B18"/>
<g clip-path="url(#clip0_0_685)">
<path d="M34.8333 30.6668C34.8333 30.8721 34.7928 31.0753 34.7142 31.2649C34.6355 31.4545 34.5204 31.6268 34.3752 31.7719C34.23 31.917 34.0576 32.0321 33.868 32.1105C33.6783 32.189 33.475 32.2294 33.2698 32.2293C33.0645 32.2292 32.8613 32.1888 32.6717 32.1101C32.4821 32.0315 32.3098 31.9163 32.1647 31.7712C32.0196 31.626 31.9046 31.4536 31.8261 31.264C31.7476 31.0743 31.7072 30.871 31.7073 30.6658C31.7074 30.2512 31.8722 29.8537 32.1655 29.5607C32.4587 29.2677 32.8563 29.1031 33.2708 29.1033C33.6854 29.1034 34.0829 29.2682 34.3759 29.5614C34.6689 29.8547 34.8335 30.2523 34.8333 30.6668ZM37.9583 22.3335C37.6821 22.3335 37.4171 22.4432 37.2218 22.6386C37.0264 22.8339 36.9167 23.0989 36.9167 23.3752V35.8752C36.9167 36.4491 36.45 36.9168 35.875 36.9168H19.2083C17.4854 36.9168 16.0833 35.5147 16.0833 33.7918V23.3699C16.9841 24.0474 18.0802 24.4147 19.2073 24.4168H29.624C29.9002 24.4168 30.1652 24.3071 30.3605 24.1117C30.5559 23.9164 30.6656 23.6514 30.6656 23.3752C30.6656 23.0989 30.5559 22.8339 30.3605 22.6386C30.1652 22.4432 29.9002 22.3335 29.624 22.3335H19.2083C18.7717 22.3302 18.3406 22.2355 17.9428 22.0554C17.545 21.8752 17.1894 21.6137 16.899 21.2877C17.1895 20.9623 17.5453 20.7017 17.9431 20.5229C18.341 20.3442 18.7721 20.2512 19.2083 20.2502H26.5C26.7763 20.2502 27.0412 20.1404 27.2366 19.9451C27.4319 19.7497 27.5417 19.4848 27.5417 19.2085C27.5417 18.9322 27.4319 18.6673 27.2366 18.4719C27.0412 18.2766 26.7763 18.1668 26.5 18.1668H19.2083C16.0833 18.1668 14 20.771 14 23.3752V33.7918C14 36.6637 16.3365 39.0002 19.2083 39.0002H35.875C37.5979 39.0002 39 37.5981 39 35.8752V23.3752C39 23.0989 38.8903 22.8339 38.6949 22.6386C38.4996 22.4432 38.2346 22.3335 37.9583 22.3335ZM31.399 18.3866L32.75 17.0522V23.3752C32.75 23.6514 32.8597 23.9164 33.0551 24.1117C33.2504 24.3071 33.5154 24.4168 33.7917 24.4168C34.0679 24.4168 34.3329 24.3071 34.5282 24.1117C34.7236 23.9164 34.8333 23.6514 34.8333 23.3752V17.071L36.1906 18.3918C36.2886 18.4872 36.4043 18.5623 36.5313 18.6129C36.6583 18.6635 36.794 18.6886 36.9307 18.6868C37.0673 18.6849 37.2023 18.6562 37.3279 18.6022C37.4535 18.5482 37.5672 18.47 37.6625 18.372C37.7578 18.2741 37.833 18.1583 37.8836 18.0313C37.9342 17.9044 37.9593 17.7687 37.9574 17.632C37.9556 17.4953 37.9269 17.3603 37.8729 17.2348C37.8189 17.1092 37.7407 16.9955 37.6427 16.9002L35.3229 14.6418C34.9123 14.2328 34.3565 14.0027 33.7769 14.002C33.1973 14.0012 32.6409 14.2297 32.2292 14.6377L29.9333 16.9054C29.836 17.0015 29.7586 17.1159 29.7055 17.242C29.6523 17.3681 29.6246 17.5034 29.6237 17.6402C29.6221 17.9166 29.7303 18.1822 29.9245 18.3788C30.1187 18.5754 30.383 18.6867 30.6594 18.6884C30.9357 18.69 31.2014 18.5819 31.3979 18.3877L31.399 18.3866Z" fill="white"/>
</g>
<defs>
<clipPath id="clip0_0_685">
<rect width="25" height="25" fill="white" transform="translate(14 14)"/>
</clipPath>
</defs>
</svg>
