<svg width="21" height="20" viewBox="0 0 21 20" fill="none" xmlns="http://www.w3.org/2000/svg">
<path d="M8 2.5H3.83333C3.3731 2.5 3 2.8731 3 3.33333V7.5C3 7.96024 3.3731 8.33333 3.83333 8.33333H8C8.46024 8.33333 8.83333 7.96024 8.83333 7.5V3.33333C8.83333 2.8731 8.46024 2.5 8 2.5Z" stroke="white" stroke-width="1.66667" stroke-linecap="round" stroke-linejoin="round"/>
<path d="M8 11.6667H3.83333C3.3731 11.6667 3 12.0398 3 12.5001V16.6667C3 17.127 3.3731 17.5001 3.83333 17.5001H8C8.46024 17.5001 8.83333 17.127 8.83333 16.6667V12.5001C8.83333 12.0398 8.46024 11.6667 8 11.6667Z" stroke="white" stroke-width="1.66667" stroke-linecap="round" stroke-linejoin="round"/>
<path d="M17.1667 2.5H13C12.5398 2.5 12.1667 2.8731 12.1667 3.33333V7.5C12.1667 7.96024 12.5398 8.33333 13 8.33333H17.1667C17.6269 8.33333 18 7.96024 18 7.5V3.33333C18 2.8731 17.6269 2.5 17.1667 2.5Z" stroke="white" stroke-width="1.66667" stroke-linecap="round" stroke-linejoin="round"/>
<path d="M17.1667 11.6667H13C12.5398 11.6667 12.1667 12.0398 12.1667 12.5001V16.6667C12.1667 17.127 12.5398 17.5001 13 17.5001H17.1667C17.6269 17.5001 18 17.127 18 16.6667V12.5001C18 12.0398 17.6269 11.6667 17.1667 11.6667Z" stroke="white" stroke-width="1.66667" stroke-linecap="round" stroke-linejoin="round"/>
</svg>
