<svg width="21" height="20" viewBox="0 0 21 20" fill="none" xmlns="http://www.w3.org/2000/svg">
<g clip-path="url(#clip0_0_482)">
<path d="M9.00001 18.3334C4.62775 18.3334 1.08334 14.6025 1.08334 10.0001C1.08334 5.39771 4.62775 1.66675 9.00001 1.66675C13.3723 1.66675 16.9167 5.39771 16.9167 10.0001C16.9167 14.6025 13.3723 18.3334 9.00001 18.3334Z" stroke="#090B18" stroke-width="1.66667" stroke-linecap="round" stroke-linejoin="round"/>
<path d="M8.58333 1.66675C12.1944 1.66675 19.4167 2.50008 19.4167 10.0001C19.4167 17.5001 12.1944 18.3334 8.58333 18.3334" stroke="#090B18" stroke-width="1.66667"/>
<path d="M7.15391 14V6.86H9.43391C10.3539 6.86 11.0239 7.04667 11.4439 7.42C11.8706 7.79333 12.0839 8.30667 12.0839 8.96C12.0839 9.34667 11.9972 9.71 11.8239 10.05C11.6506 10.39 11.3606 10.6633 10.9539 10.87C10.5539 11.0767 10.0072 11.18 9.31391 11.18H8.66391V14H7.15391ZM6.35391 12.93V11.96H10.2039V12.93H6.35391ZM6.35391 11.18V9.94H9.28391V11.18H6.35391ZM9.16391 9.94C9.45057 9.94 9.69724 9.91 9.90391 9.85C10.1106 9.78333 10.2706 9.68 10.3839 9.54C10.4972 9.4 10.5539 9.22333 10.5539 9.01C10.5539 8.70333 10.4572 8.47667 10.2639 8.33C10.0706 8.17667 9.76724 8.1 9.35391 8.1H8.66391V9.94H9.16391Z" fill="#090B18"/>
</g>
<defs>
<clipPath id="clip0_0_482">
<rect width="20" height="20" fill="white" transform="translate(0.25)"/>
</clipPath>
</defs>
</svg>
