<svg width="20" height="20" viewBox="0 0 20 20" fill="none" xmlns="http://www.w3.org/2000/svg">
<g clip-path="url(#clip0_0_454)">
<path d="M18.4262 5.3901L12.1762 1.9526C12.0839 1.90185 11.9803 1.87524 11.875 1.87524C11.7697 1.87524 11.6661 1.90185 11.5738 1.9526L5.3238 5.3901C5.22581 5.44406 5.14409 5.52332 5.08718 5.61962C5.03027 5.71593 5.00024 5.82574 5.00024 5.9376C5.00024 6.04947 5.03027 6.15928 5.08718 6.25558C5.14409 6.35189 5.22581 6.43115 5.3238 6.4851L11.25 9.74467V16.443L9.35236 15.3997L8.74999 16.4946L11.5738 18.0476C11.666 18.0984 11.7697 18.1251 11.875 18.1251C11.9803 18.1251 12.0839 18.0984 12.1762 18.0476L18.4262 14.6101C18.5242 14.5562 18.606 14.4769 18.6629 14.3806C18.7199 14.2843 18.75 14.1745 18.75 14.0626V5.9376C18.75 5.82571 18.7199 5.71588 18.6629 5.61958C18.606 5.52327 18.5242 5.44402 18.4262 5.3901ZM11.875 3.2136L16.828 5.9376L11.875 8.6616L6.92199 5.9376L11.875 3.2136ZM17.5 13.693L12.5 16.443V9.74467L17.5 6.99467V13.693Z" fill="#090B18"/>
<path d="M1.25 10H6.25V8.75H1.25V10Z" fill="#090B18"/>
<path d="M2.5 15H7.5V13.75H2.5V15Z" fill="#090B18"/>
<path d="M3.75 12.5H8.75V11.25H3.75V12.5Z" fill="#090B18"/>
</g>
<defs>
<clipPath id="clip0_0_454">
<rect width="20" height="20" fill="white"/>
</clipPath>
</defs>
</svg>
