<svg width="20" height="20" viewBox="0 0 20 20" fill="none" xmlns="http://www.w3.org/2000/svg">
<g clip-path="url(#clip0_0_488)">
<path fill-rule="evenodd" clip-rule="evenodd" d="M9.16669 3.33341C8.83838 3.33341 8.51329 3.39808 8.20998 3.52372C7.90666 3.64935 7.63107 3.8335 7.39892 4.06565C7.16677 4.29779 6.98262 4.57339 6.85699 4.87671C6.73135 5.18002 6.66669 5.50511 6.66669 5.83341C6.66669 6.16172 6.73135 6.48681 6.85699 6.79012C6.98262 7.09344 7.16677 7.36904 7.39892 7.60118C7.63107 7.83333 7.90666 8.01748 8.20998 8.14311C8.51329 8.26875 8.83838 8.33341 9.16669 8.33341C9.82973 8.33341 10.4656 8.07002 10.9345 7.60118C11.4033 7.13234 11.6667 6.49646 11.6667 5.83341C11.6667 5.17037 11.4033 4.53449 10.9345 4.06565C10.4656 3.59681 9.82973 3.33341 9.16669 3.33341ZM5.00002 5.83341C5.00002 4.72835 5.43901 3.66854 6.22041 2.88714C7.00181 2.10573 8.06162 1.66675 9.16669 1.66675C10.2718 1.66675 11.3316 2.10573 12.113 2.88714C12.8944 3.66854 13.3334 4.72835 13.3334 5.83341C13.3334 6.93848 12.8944 7.99829 12.113 8.77969C11.3316 9.56109 10.2718 10.0001 9.16669 10.0001C8.06162 10.0001 7.00181 9.56109 6.22041 8.77969C5.43901 7.99829 5.00002 6.93848 5.00002 5.83341ZM3.67752 14.6676C3.40835 15.0092 3.33335 15.2676 3.33335 15.4167C3.33335 15.5184 3.36419 15.6259 3.54585 15.7717C3.75335 15.9384 4.11419 16.1109 4.66585 16.2567C5.76419 16.5484 7.34252 16.6667 9.16669 16.6667C9.35169 16.6667 9.53419 16.6651 9.71502 16.6626C9.93603 16.6596 10.1492 16.7445 10.3076 16.8987C10.466 17.0529 10.5566 17.2637 10.5596 17.4847C10.5626 17.7057 10.4777 17.9188 10.3235 18.0772C10.1693 18.2356 9.95853 18.3263 9.73752 18.3292C9.54919 18.3317 9.35835 18.3334 9.16669 18.3334C7.30919 18.3334 5.55419 18.2167 4.23919 17.8684C3.58502 17.6951 2.96919 17.4467 2.50252 17.0717C2.00835 16.6751 1.66669 16.1209 1.66669 15.4167C1.66669 14.7609 1.96502 14.1476 2.37002 13.6342C2.78169 13.1134 3.35085 12.6342 4.01835 12.2259C5.35419 11.4126 7.17085 10.8334 9.16669 10.8334C9.53919 10.8334 9.90585 10.8534 10.2634 10.8917C10.4832 10.9151 10.6847 11.0247 10.8236 11.1966C10.9626 11.3686 11.0275 11.5886 11.0042 11.8084C10.9809 12.0282 10.8712 12.2297 10.6993 12.3687C10.5274 12.5076 10.3073 12.5726 10.0875 12.5492C9.78752 12.5167 9.47919 12.5001 9.16669 12.5001C7.48085 12.5001 5.96419 12.9917 4.88669 13.6492C4.34752 13.9776 3.94002 14.3342 3.67752 14.6676ZM18.09 13.3901C18.2418 13.2329 18.3258 13.0224 18.3239 12.8039C18.322 12.5854 18.2344 12.3764 18.0799 12.2219C17.9254 12.0674 17.7164 11.9798 17.4979 11.9779C17.2794 11.976 17.0689 12.0599 16.9117 12.2117L14.26 14.8634L13.0817 13.6851C12.9245 13.5333 12.714 13.4493 12.4955 13.4512C12.277 13.4531 12.068 13.5407 11.9135 13.6952C11.759 13.8497 11.6714 14.0587 11.6695 14.2772C11.6676 14.4957 11.7516 14.7062 11.9034 14.8634L13.6117 16.5717C13.6968 16.6569 13.7979 16.7245 13.9091 16.7706C14.0204 16.8167 14.1396 16.8404 14.26 16.8404C14.3804 16.8404 14.4997 16.8167 14.6109 16.7706C14.7222 16.7245 14.8232 16.6569 14.9084 16.5717L18.09 13.3901Z" fill="#090B18"/>
</g>
<defs>
<clipPath id="clip0_0_488">
<rect width="20" height="20" fill="white"/>
</clipPath>
</defs>
</svg>
