<svg width="21" height="22" viewBox="0 0 21 22" fill="none" xmlns="http://www.w3.org/2000/svg">
<path fill-rule="evenodd" clip-rule="evenodd" d="M15.2377 13.0844C14.9776 12.9542 13.6994 12.3254 13.461 12.2384C13.2227 12.1517 13.0494 12.1084 12.876 12.3686C12.7026 12.6288 12.2043 13.2145 12.0527 13.3881C11.9011 13.5616 11.7493 13.5834 11.4894 13.4531C11.2293 13.323 10.3915 13.0485 9.39846 12.1626C8.62548 11.4731 8.10363 10.6217 7.95199 10.3614C7.80028 10.1011 7.93575 9.96041 8.06594 9.83074C8.18296 9.71428 8.32603 9.52703 8.45599 9.37521C8.586 9.22341 8.62933 9.11488 8.716 8.94147C8.80268 8.76787 8.75936 8.61609 8.6943 8.48597C8.62933 8.35582 8.10932 7.07595 7.89264 6.5553C7.68158 6.04834 7.46722 6.11701 7.30762 6.10896C7.15614 6.10144 6.98261 6.09983 6.80931 6.09983C6.63597 6.09983 6.35426 6.16491 6.11588 6.42514C5.87761 6.68545 5.20589 7.31455 5.20589 8.59427C5.20589 9.87414 6.13755 11.1105 6.26759 11.284C6.39763 11.4576 8.101 14.0838 10.7094 15.2101C11.3297 15.4781 11.814 15.638 12.1916 15.7578C12.8145 15.9557 13.3813 15.9278 13.8294 15.8608C14.3289 15.7863 15.3677 15.2319 15.5844 14.6246C15.801 14.0171 15.801 13.4965 15.736 13.3881C15.671 13.2796 15.4977 13.2145 15.2377 13.0844ZM10.4934 19.5621H10.49C8.93795 19.5615 7.41577 19.1446 6.08781 18.3566L5.77197 18.169L2.49848 19.0278L3.37221 15.8361L3.16662 15.5089C2.30082 14.1318 1.84352 12.5403 1.84419 10.9059C1.8461 6.13725 5.72613 2.25752 10.4969 2.25752C12.8071 2.25835 14.9787 3.15917 16.6118 4.79406C18.2447 6.42884 19.1434 8.6019 19.1426 10.9129C19.1406 15.682 15.2607 19.5621 10.4934 19.5621ZM17.8546 3.55176C15.8899 1.58483 13.2772 0.501123 10.4934 0.5C4.75769 0.5 0.0895134 5.16787 0.0871933 10.9053C0.0864448 12.7394 0.565596 14.5295 1.47622 16.1076L0 21.5L5.51638 20.0529C7.03635 20.882 8.74762 21.319 10.4892 21.3195H10.4935C16.2286 21.3195 20.8972 16.6512 20.8996 10.9136C20.9006 8.13316 19.8192 5.51867 17.8546 3.55176Z" fill="#090B18"/>
</svg>
